<?xml version="1.0" encoding="utf-8"?>
<!-- Generator: Adobe Illustrator 16.0.0, SVG Export Plug-In . SVG Version: 6.00 Build 0)  -->
<!DOCTYPE svg PUBLIC "-//W3C//DTD SVG 1.1//EN" "http://www.w3.org/Graphics/SVG/1.1/DTD/svg11.dtd">
<svg version="1.1" id="Camada_1" xmlns="http://www.w3.org/2000/svg" xmlns:xlink="http://www.w3.org/1999/xlink" x="0px" y="0px"
	 width="300px" height="80px" viewBox="0 0 300 80" enable-background="new 0 0 300 80" xml:space="preserve">
<g>
	<circle fill="#FFFFFF" cx="37.498" cy="40" r="30.007"/>
</g>
<g>
	<path fill="#FFFFFF" d="M100.867,25.369l14.949,32.528h-7.991l-3.997-8.695H91.442l-4.184,8.695h-5.312l15.535-32.528H100.867z
		 M92.923,46.239h9.59l-4.725-10.293L92.923,46.239z"/>
	<path fill="#FFFFFF" d="M127.003,57.897h-7.262V24.241l5.076-2.68h2.186V57.897z"/>
	<path fill="#FFFFFF" d="M149.003,28.565c-0.111-0.36-0.248-0.788-0.412-1.281s-0.395-0.967-0.693-1.422
		c-0.299-0.454-0.675-0.837-1.128-1.152c-0.454-0.312-1.018-0.469-1.693-0.469c-0.658,0-1.167,0.325-1.527,0.975
		c-0.36,0.65-0.541,1.634-0.541,2.95v5.664h5.994v2.938h-5.994v21.129h-7.286V36.769h-4.7V33.83h4.7v-2.68
		c0-1.236,0.247-2.432,0.74-3.584c0.494-1.151,1.183-2.173,2.068-3.067c0.887-0.894,1.935-1.605,3.15-2.139
		c1.215-0.532,2.55-0.799,4.008-0.799c1.192,0,2.216,0.16,3.079,0.481c0.862,0.32,1.598,0.714,2.208,1.175
		c0.611,0.462,1.117,0.949,1.518,1.458c0.398,0.508,0.715,0.96,0.951,1.352L149.003,28.565z"/>
	<path fill="#FFFFFF" d="M149.52,39.941c0.251-1.004,0.689-1.916,1.316-2.738c0.626-0.823,1.406-1.519,2.339-2.092
		c0.932-0.574,1.998-1.016,3.195-1.328c1.199-0.312,2.496-0.47,3.891-0.47c1.721,0,3.213,0.157,4.467,0.47
		c1.252,0.312,2.283,0.754,3.09,1.328c0.805,0.573,1.402,1.261,1.785,2.068c0.383,0.809,0.576,1.711,0.576,2.715v13.773
		c0,0.986,0.307,1.826,0.916,2.515c0.611,0.688,1.473,1.262,2.586,1.715h-8.65c-0.252,0-0.492-0.069-0.727-0.212
		c-0.236-0.14-0.447-0.325-0.637-0.552c-0.188-0.226-0.352-0.475-0.492-0.739c-0.141-0.267-0.242-0.525-0.307-0.776
		c-0.439,0.407-0.854,0.777-1.246,1.116c-0.391,0.338-0.82,0.624-1.293,0.857c-0.469,0.236-0.992,0.421-1.574,0.553
		c-0.58,0.132-1.275,0.2-2.09,0.2c-1.113,0-2.111-0.157-2.998-0.47c-0.887-0.313-1.639-0.75-2.256-1.306
		c-0.619-0.554-1.093-1.212-1.422-1.974c-0.329-0.762-0.493-1.586-0.493-2.479c0-1.38,0.383-2.562,1.151-3.551
		c0.769-0.986,1.782-1.849,3.044-2.584c1.262-0.736,2.689-1.38,4.291-1.928c1.598-0.548,3.225-1.075,4.887-1.574v-2.352
		c0-0.768-0.076-1.422-0.234-1.962s-0.375-0.978-0.658-1.316c-0.281-0.338-0.621-0.578-1.021-0.729s-0.842-0.223-1.33-0.223
		c-0.58,0-1.098,0.109-1.549,0.328c-0.455,0.219-0.848,0.518-1.178,0.894c-0.326,0.376-0.594,0.807-0.799,1.293
		c-0.203,0.485-0.352,0.994-0.445,1.527H149.52z M162.869,45.488c-0.703,0.298-1.416,0.658-2.139,1.082
		c-0.721,0.422-1.367,0.895-1.938,1.421c-0.574,0.526-1.043,1.104-1.412,1.74c-0.367,0.634-0.551,1.311-0.551,2.032
		c0,0.799,0.207,1.427,0.621,1.88c0.416,0.454,0.977,0.682,1.682,0.682c0.594,0,1.182-0.176,1.764-0.528
		c0.58-0.353,1.238-0.812,1.973-1.375V45.488z"/>
	<path fill="#FFFFFF" d="M192.25,41.469c0-1.239-0.199-2.183-0.6-2.831c-0.4-0.649-0.922-0.976-1.562-0.976
		c-0.281,0-0.639,0.062-1.07,0.188c-0.43,0.125-0.889,0.305-1.375,0.54c-0.486,0.236-0.975,0.51-1.469,0.823
		c-0.492,0.312-0.951,0.658-1.375,1.034v17.65h-7.381V24.241l5.195-2.68h2.186v14.22c1.111-0.815,2.355-1.422,3.727-1.821
		c1.369-0.4,2.713-0.6,4.029-0.6c0.971,0,1.885,0.19,2.738,0.575c0.854,0.386,1.6,0.907,2.232,1.575
		c0.637,0.668,1.137,1.446,1.506,2.339c0.367,0.894,0.551,1.84,0.551,2.844v17.204h-7.332V41.469z"/>
	<path fill="#FFFFFF" d="M217.375,58.438c-1.709,0-3.314-0.317-4.818-0.951c-1.504-0.635-2.812-1.49-3.924-2.562
		c-1.113-1.071-1.994-2.316-2.645-3.737c-0.65-1.419-0.977-2.919-0.977-4.5c0-1.896,0.299-3.656,0.895-5.277
		c0.594-1.622,1.439-3.026,2.537-4.22c1.098-1.19,2.41-2.117,3.938-2.784c1.527-0.668,3.232-0.999,5.111-0.999
		c1.676,0,3.213,0.267,4.607,0.8s2.59,1.262,3.584,2.185c0.994,0.925,1.768,2.015,2.314,3.268c0.549,1.253,0.824,2.592,0.824,4.02
		h-16.666c0.064,1.332,0.266,2.603,0.602,3.809c0.334,1.204,0.785,2.268,1.352,3.184c0.562,0.917,1.227,1.646,1.984,2.186
		c0.76,0.541,1.604,0.812,2.527,0.812c0.799,0,1.586-0.139,2.361-0.412c0.775-0.272,1.492-0.647,2.15-1.128
		c0.658-0.479,1.229-1.034,1.715-1.668c0.488-0.636,0.84-1.322,1.061-2.058l3.713,0.588c-0.377,1.3-0.977,2.522-1.799,3.667
		c-0.822,1.146-1.785,2.146-2.891,3.008c-1.104,0.863-2.309,1.54-3.607,2.033C220.023,58.192,218.709,58.438,217.375,58.438z
		 M220.455,41.188c-0.064-0.706-0.217-1.353-0.459-1.94c-0.242-0.587-0.553-1.093-0.928-1.515c-0.377-0.424-0.816-0.75-1.316-0.976
		c-0.502-0.227-1.041-0.342-1.621-0.342c-0.455,0-0.902,0.115-1.342,0.342c-0.439,0.226-0.832,0.55-1.188,0.964
		c-0.352,0.414-0.65,0.917-0.893,1.504s-0.404,1.241-0.48,1.963H220.455z"/>
	<path fill="#FFFFFF" d="M242.146,57.897h-7.262V24.241l5.078-2.68h2.184V57.897z"/>
	<path fill="#FFFFFF" d="M249.152,25.44c0-0.486,0.102-0.949,0.305-1.388c0.205-0.438,0.488-0.815,0.846-1.128
		c0.361-0.313,0.777-0.564,1.248-0.752c0.469-0.188,0.98-0.282,1.527-0.282s1.062,0.094,1.539,0.282
		c0.477,0.188,0.893,0.438,1.244,0.752c0.354,0.312,0.631,0.689,0.836,1.128c0.203,0.438,0.305,0.901,0.305,1.388
		c0,0.484-0.102,0.942-0.305,1.374c-0.205,0.432-0.482,0.804-0.836,1.117c-0.352,0.313-0.768,0.563-1.244,0.751
		c-0.477,0.188-0.992,0.283-1.539,0.283s-1.059-0.095-1.527-0.283c-0.471-0.188-0.887-0.438-1.248-0.751
		c-0.357-0.313-0.641-0.686-0.846-1.117C249.254,26.383,249.152,25.925,249.152,25.44z M249.457,36.017l5.125-2.68h2.186v24.561
		h-7.311V36.017z"/>
	<path fill="#FFFFFF" d="M265.934,57.897h-5.193l20.119-24.067h5.193L265.934,57.897z M260.787,33.83h8.156l17.086,24.067h-8.18
		L260.787,33.83z"/>
</g>
<g>
	<path fill-rule="evenodd" clip-rule="evenodd" fill="#333A3F" d="M25.496,56.618c0.005-3.394,0.886-6.534,2.57-9.452
		c1.842-3.19,4.333-5.834,7.03-8.298c2.715-2.48,5.577-4.799,8.165-7.42c2.46-2.494,4.578-5.213,5.857-8.515
		c0.011-0.028,0.053-0.044,0.157-0.126c-0.037,0.984-0.105,1.898-0.256,2.808c-0.744,4.491-2.946,8.256-5.814,11.69
		c-2.318,2.777-5.047,5.135-7.702,7.568c-2.974,2.728-5.954,5.455-8.243,8.827C26.622,54.64,26.067,55.63,25.496,56.618z"/>
	<path fill-rule="evenodd" clip-rule="evenodd" fill="#333A3F" d="M24.726,21.315c0.195,0.399,0.361,0.751,0.537,1.097
		c0.17,0.334,0.329,0.676,0.531,0.991c1.084,1.692,2.175,2.059,4.074,1.4c1.577-0.548,3.108-1.21,4.66-1.824
		c0.26-0.104,0.53-0.19,0.804-0.247c0.33-0.068,0.547,0.107,0.631,0.417c0.093,0.337-0.179,0.407-0.408,0.492
		c-1.305,0.473-2.613,0.937-3.913,1.421c-0.81,0.302-1.592,0.667-2.248,1.25c-0.125,0.112-0.243,0.233-0.354,0.36
		c-0.258,0.293-0.344,0.611-0.153,0.983c0.204,0.397,0.544,0.422,0.915,0.358c1.368-0.235,2.735-0.476,4.101-0.72
		c0.886-0.158,1.77-0.331,2.656-0.491c0.129-0.023,0.261-0.023,0.392-0.032c0.29-0.02,0.468,0.107,0.506,0.402
		c0.037,0.284-0.136,0.419-0.377,0.472c-0.733,0.16-1.469,0.305-2.203,0.461c-0.752,0.158-1.504,0.319-2.253,0.491
		c-0.312,0.072-0.609,0.193-0.862,0.4c-0.329,0.268-0.731,0.482-0.523,1.044c0.216,0.585,0.562,0.958,1.14,0.901
		c1.385-0.135,2.777-0.057,4.161-0.173c0.187-0.016,0.373-0.043,0.561-0.049c0.303-0.007,0.437,0.176,0.469,0.453
		c0.032,0.27-0.095,0.448-0.358,0.479c-0.371,0.044-0.749,0.033-1.119,0.081c-0.553,0.071-1.194,0.067-1.466,0.657
		c-0.254,0.555,0.184,0.993,0.463,1.425c0.351,0.542,0.852,0.943,1.344,1.353c0.6,0.499,0.598,0.793,0.033,1.329
		c-0.845,0.799-1.698,1.592-2.539,2.396c-0.353,0.336-0.68,0.425-1.064,0.039c-3.554-3.581-6.438-7.571-7.709-12.554
		c-0.362-1.421-0.626-2.858-0.632-4.332C24.52,21.819,24.493,21.588,24.726,21.315z"/>
	<path fill-rule="evenodd" clip-rule="evenodd" fill="#333A3F" d="M50.327,58.446c-0.211-0.069-0.247-0.293-0.343-0.458
		c-0.397-0.678-0.711-1.405-1.17-2.051c-0.743-1.044-1.746-1.428-2.996-1.188c-1.093,0.21-2.101,0.669-3.114,1.107
		c-0.962,0.417-1.918,0.843-2.918,1.17c-0.325,0.106-0.559,0.042-0.676-0.288c-0.12-0.341,0.113-0.482,0.374-0.577
		c0.985-0.363,1.97-0.725,2.958-1.075c1.137-0.402,2.234-0.874,3.186-1.634c0.298-0.238,0.477-0.54,0.509-0.906
		c0.038-0.437-0.4-0.831-0.897-0.766c-0.836,0.11-1.666,0.267-2.496,0.415c-1.365,0.243-2.729,0.492-4.093,0.744
		c-0.304,0.057-0.624,0.159-0.716-0.276c-0.102-0.479,0.247-0.572,0.599-0.62c1.396-0.19,2.756-0.546,4.103-0.949
		c0.513-0.153,1.017-0.367,1.058-1.011c0.043-0.718-0.476-1.244-1.23-1.226c-1.294,0.034-2.588,0.1-3.881,0.149
		c-0.206,0.008-0.412,0.01-0.619,0.006c-0.277-0.006-0.409-0.158-0.398-0.432c0.008-0.254,0.151-0.362,0.397-0.374
		c0.642-0.034,1.255-0.215,1.853-0.435c0.665-0.241,0.781-0.558,0.405-1.16c-0.476-0.769-1.062-1.45-1.728-2.064
		c-0.564-0.521-0.561-0.686-0.005-1.229c0.832-0.814,1.674-1.617,2.511-2.425c0.337-0.326,0.677-0.375,1.033-0.03
		c3.363,3.26,6.034,6.97,7.432,11.496c0.585,1.891,0.822,3.847,0.949,5.816C50.418,58.263,50.455,58.364,50.327,58.446z"/>
	<path fill-rule="evenodd" clip-rule="evenodd" fill="#333A3F" d="M46.766,12.908c0.981,1.53,1.498,3.137,1.746,4.842
		c0.462,3.192-0.521,5.992-2.332,8.566c-1.773,2.519-3.982,4.634-6.238,6.705c-0.066,0.062-0.158,0.093-0.274,0.157
		c-0.137-0.374,0.17-0.515,0.312-0.719c0.145-0.209,0.406-0.375,0.273-0.683c-0.14-0.322-0.437-0.303-0.724-0.293
		c-0.243,0.009-0.487,0.016-0.73,0.006c-0.203-0.006-0.365-0.095-0.413-0.312c-0.045-0.204,0.024-0.365,0.197-0.488
		c0.237-0.17,0.514-0.226,0.789-0.282c1.928-0.394,3.294-1.545,4.294-3.185c0.107-0.175,0.336-0.367,0.136-0.6
		c-0.175-0.202-0.427-0.099-0.639-0.062c-1.292,0.228-2.583,0.466-3.872,0.709c-0.331,0.063-0.664,0.142-0.765-0.301
		c-0.094-0.409,0.185-0.567,0.522-0.662c1.046-0.292,2.074-0.645,3.096-1.017c2.326-0.846,3.776-2.494,4.477-4.839
		c0.054-0.18,0.124-0.358-0.035-0.526c-0.178-0.188-0.368-0.119-0.569-0.046c-2.274,0.814-4.551,1.625-6.826,2.437
		c-0.329,0.117-0.702,0.358-0.878-0.173c-0.163-0.494,0.211-0.664,0.576-0.802c1.58-0.597,3.132-1.247,4.566-2.156
		c1.894-1.201,3.064-2.833,3.146-5.14C46.614,13.693,46.58,13.331,46.766,12.908z"/>
	<path fill-rule="evenodd" clip-rule="evenodd" fill="#333A3F" d="M35.14,47.131c-0.138,0.2-0.287,0.395-0.413,0.602
		c-0.221,0.362-0.111,0.575,0.307,0.579c0.185,0,0.372-0.045,0.557-0.07c0.284-0.04,0.534-0.005,0.631,0.316
		c0.103,0.338-0.007,0.595-0.337,0.733c-0.155,0.063-0.322,0.097-0.486,0.136c-1.861,0.456-3.207,1.572-4.131,3.225
		c-0.087,0.157-0.246,0.338-0.129,0.516c0.119,0.18,0.347,0.097,0.524,0.069c1.222-0.188,2.444-0.385,3.665-0.58
		c0.075-0.012,0.147-0.04,0.221-0.042c0.265-0.006,0.601-0.157,0.695,0.254c0.086,0.377-0.156,0.53-0.48,0.629
		c-0.948,0.294-1.906,0.564-2.835,0.912c-2.345,0.877-3.927,2.492-4.626,4.927c-0.061,0.214-0.196,0.441,0.012,0.628
		c0.197,0.179,0.421,0.065,0.635-0.011c2.344-0.849,4.688-1.693,7.032-2.541c0.106-0.04,0.213-0.073,0.317-0.116
		c0.296-0.12,0.563-0.12,0.701,0.222c0.149,0.372-0.072,0.553-0.386,0.679c-0.852,0.341-1.711,0.669-2.55,1.04
		c-1.375,0.612-2.675,1.346-3.805,2.365c-1.518,1.371-2.095,3.102-2.037,5.157c-0.311-0.188-0.387-0.483-0.511-0.729
		c-2.211-4.455-1.735-8.682,1.154-12.659c1.616-2.224,3.471-4.236,5.668-5.913c0.178-0.135,0.36-0.263,0.541-0.394
		C35.093,47.085,35.116,47.109,35.14,47.131z"/>
</g>
</svg>
